<svg version="1.1" id="Layer_1" xmlns="http://www.w3.org/2000/svg" xmlns:xlink="http://www.w3.org/1999/xlink" x="0px" y="0px"
	 width="100%" viewBox="0 0 343 343" enable-background="new 0 0 343 343" xml:space="preserve">
<path fill="rgb(124, 58, 237)" opacity="1.000000" stroke="none" 
	d="
M236.000000,344.000000 
	C157.333344,344.000000 79.166695,344.000000 1.000031,344.000000 
	C1.000021,229.666702 1.000021,115.333405 1.000010,1.000077 
	C115.333282,1.000052 229.666565,1.000052 343.999878,1.000026 
	C343.999939,115.333260 343.999939,229.666519 343.999969,343.999878 
	C308.166656,344.000000 272.333344,344.000000 236.000000,344.000000 
M115.022911,207.041809 
	C115.022911,207.041809 115.116486,207.088135 114.411026,207.021301 
	C113.938667,207.016174 113.466316,207.011032 113.063271,206.352737 
	C113.063271,205.131317 113.063271,203.909897 113.063271,202.688477 
	C112.497696,202.540771 111.932121,202.393066 111.366547,202.245361 
	C109.587799,205.645889 107.809044,209.046417 105.269928,212.496384 
	C102.334007,216.338120 99.398094,220.179855 95.806389,224.020264 
	C94.888718,225.052689 93.971046,226.085114 92.755013,227.710464 
	C87.475258,234.627518 82.396416,241.712646 76.818611,248.380371 
	C74.531761,251.114090 71.424438,253.467651 68.222794,255.045303 
	C64.902382,256.681458 60.336674,263.754669 61.732342,266.474121 
	C64.147659,271.180328 67.088661,275.759796 68.591690,280.758545 
	C71.017593,288.826599 74.951530,294.970917 82.658333,299.121735 
	C88.419357,302.224579 92.428299,302.994324 97.909065,299.325195 
	C100.384712,297.667816 102.955956,296.153290 106.081215,294.610596 
	C106.371300,294.356842 106.661385,294.103119 107.121857,293.579102 
	C107.121857,293.579102 107.419792,293.463715 108.075035,293.623352 
	C108.750877,293.141907 109.426727,292.660461 110.107246,292.106110 
	C110.107246,292.106110 110.179474,292.117065 110.828384,292.179626 
	C111.548164,291.764709 112.267944,291.349792 113.238792,290.705200 
	C113.238792,290.705200 113.575935,290.659271 114.129997,290.771759 
	C114.431961,290.569122 114.733925,290.366455 115.479034,289.849854 
	C115.832672,289.786530 116.186302,289.723236 117.157738,289.787537 
	C117.816551,289.353485 118.475357,288.919434 119.890945,288.261963 
	C121.939941,287.916718 123.988937,287.571442 126.520279,287.569031 
	C127.727936,287.231476 128.935593,286.893921 130.739822,286.305328 
	C131.165817,286.245758 131.591797,286.186188 132.353958,286.453888 
	C132.941818,286.107727 133.529678,285.761597 134.726593,285.187897 
	C135.157578,285.173615 135.588547,285.159332 136.526184,285.511749 
	C138.397919,284.853638 140.269669,284.195496 142.745132,283.302429 
	C143.173721,283.274414 143.602310,283.246399 144.378189,283.544250 
	C144.964401,283.188507 145.550598,282.832794 146.715988,282.188660 
	C147.141693,282.133331 147.567413,282.078003 148.507843,282.348022 
	C150.379150,281.701599 152.250458,281.055206 154.727722,280.183533 
	C155.156113,280.157837 155.584503,280.132111 156.562271,280.455933 
	C158.727554,279.762787 160.892853,279.069611 163.689392,278.166504 
	C164.131332,278.153137 164.573257,278.139771 165.471161,278.470123 
	C167.035126,277.905304 168.599091,277.340485 170.976700,276.558685 
	C172.653641,276.396881 174.330597,276.235077 176.576508,276.458496 
	C179.432892,275.823029 182.289276,275.187561 185.879211,274.267090 
	C186.921890,274.207458 187.964584,274.147827 189.471878,274.482239 
	C190.698196,274.174103 191.924500,273.865936 193.934052,273.225525 
	C195.632614,273.214508 197.331192,273.203461 199.427200,273.560852 
	C200.333038,273.218994 201.238892,272.877106 202.708069,272.373474 
	C203.092560,272.421326 203.477036,272.469177 204.320496,273.096344 
	C208.892441,273.176788 213.464401,273.257233 218.846405,273.254089 
	C222.218689,273.450989 225.590958,273.647888 229.415924,274.300140 
	C230.604340,274.266388 231.792740,274.232605 233.908737,274.117798 
	C238.221191,274.301300 242.533646,274.484772 247.348953,275.208130 
	C251.938278,275.344727 256.539398,275.320068 261.114166,275.655304 
	C268.187073,276.173584 275.254272,276.831940 282.298218,277.651733 
	C284.966553,277.962311 288.496674,277.992523 287.732452,275.009918 
	C286.894257,271.738586 289.694946,273.234802 290.810669,271.964325 
	C292.158875,272.176544 293.507050,272.388733 295.249207,273.109741 
	C300.118286,273.862335 300.977112,272.130371 298.637970,265.090698 
	C298.598816,261.923706 298.559662,258.756744 298.568146,254.773361 
	C297.157715,254.427216 295.747284,254.081070 293.746277,253.837769 
	C293.156555,253.755310 292.566833,253.672852 292.231262,253.103394 
	C291.493561,250.924622 284.470032,246.984131 281.852905,247.402954 
	C276.897430,248.195953 271.958069,249.089645 266.167572,250.000443 
	C264.485596,249.849960 262.803619,249.699463 260.793945,248.938705 
	C257.532440,248.601074 254.270950,248.263443 250.129944,247.973007 
	C247.804291,247.756256 245.478653,247.539505 242.707718,246.797409 
	C237.981918,246.305801 233.256134,245.814209 227.833984,245.100815 
	C226.874451,244.970673 225.914917,244.840530 224.533188,244.358032 
	C223.693207,244.524643 222.853226,244.691254 221.170120,244.926285 
	C219.488449,244.803925 217.806778,244.681564 215.694641,243.956573 
	C212.993820,243.734390 210.292984,243.512222 206.885468,243.396545 
	C205.938019,243.335434 204.990555,243.274307 203.405304,242.738205 
	C200.220856,242.962250 197.036423,243.186295 193.051987,243.558853 
	C187.354248,243.628784 181.656494,243.698730 175.436813,243.367172 
	C173.921738,243.781662 172.406647,244.196152 170.092285,244.803238 
	C168.725677,244.857422 167.359070,244.911591 165.640427,244.649094 
	C165.087479,244.812317 164.534531,244.975525 163.380905,245.326248 
	C162.755249,245.353165 162.129578,245.380066 160.683960,245.134293 
	C157.736023,245.841644 154.788086,246.548981 151.042084,247.443665 
	C149.685516,247.565536 148.328934,247.687408 146.397659,247.455551 
	C143.920944,248.034302 141.444244,248.613052 138.241821,249.386230 
	C136.487961,249.542404 134.734085,249.698593 132.522430,249.388153 
	C131.954147,248.502182 131.385880,247.616211 130.994659,246.128387 
	C131.668671,245.088928 132.342682,244.049454 133.505539,242.744644 
	C133.609650,242.403030 133.713776,242.061432 134.008621,241.169357 
	C134.585571,240.396118 135.162537,239.622864 136.258072,238.584808 
	C136.396729,238.234650 136.535385,237.884491 136.843674,237.050766 
	C137.172913,236.669235 137.502151,236.287720 138.347198,235.672791 
	C138.493073,235.337860 138.638962,235.002930 138.988342,234.071457 
	C139.485626,233.151672 139.982910,232.231888 141.091431,231.064026 
	C142.899979,227.286835 144.708527,223.509644 146.605438,219.619888 
	C146.605438,219.619888 146.685379,219.501190 147.201920,219.308960 
	C147.360504,218.813065 147.519089,218.317154 148.016968,217.190384 
	C148.612228,216.156052 149.207489,215.121735 150.376648,213.898331 
	C153.414474,208.121918 160.680557,204.097733 158.201950,195.349594 
	C158.494431,194.575394 158.786911,193.801193 159.448868,192.719009 
	C159.710999,192.510895 159.878174,192.243439 160.404083,191.366638 
	C161.957367,191.040253 163.510666,190.713852 165.546860,190.741760 
	C167.024429,190.891846 168.502014,191.041931 170.661514,191.119278 
	C171.117371,191.144241 171.573227,191.169205 172.654236,191.623718 
	C178.901657,191.418304 185.191360,190.666168 191.385818,191.145447 
	C199.187408,191.749069 203.883911,188.707581 206.774567,181.271027 
	C207.212051,181.298737 207.649551,181.326447 208.601868,181.629303 
	C210.306595,179.903152 212.149429,178.287216 213.654388,176.401611 
	C214.345947,175.535141 214.993530,173.585541 214.565796,173.107910 
	C213.839493,172.296906 212.246094,172.262436 210.113678,171.781876 
	C207.087341,171.846481 204.060989,171.911102 200.479416,171.323074 
	C200.567322,170.499832 200.655228,169.676590 201.327820,168.805618 
	C201.503525,168.719757 201.679214,168.633911 202.563522,168.623337 
	C204.369019,167.319809 206.174500,166.016281 207.979996,164.712753 
	C205.937653,164.300644 203.895294,163.888535 201.050171,163.315247 
	C199.687332,163.238785 198.324509,163.162323 196.628464,162.531937 
	C196.936584,161.350952 197.244720,160.169968 197.754532,158.899506 
	C197.754532,158.899506 197.999146,158.542435 198.556976,158.027740 
	C198.863434,157.335403 199.169876,156.643066 200.085449,155.794174 
	C203.456589,152.268112 206.827728,148.742050 210.808548,144.977936 
	C211.886139,143.689728 212.963730,142.401535 214.156403,140.598587 
	C214.426041,140.387634 214.695663,140.176666 215.581451,139.963531 
	C216.022827,139.590897 216.464203,139.218246 217.263062,138.283630 
	C231.099655,126.083908 244.865601,113.802139 258.843658,101.766747 
	C261.123993,99.803322 264.211823,98.264336 267.153015,97.690292 
	C273.004761,96.548210 280.292816,88.988197 279.515686,83.033020 
	C278.585571,75.905319 276.602051,69.081001 271.180542,63.606857 
	C266.187103,58.564949 261.733551,52.984928 257.090942,47.599903 
	C252.035446,41.735928 245.362946,38.480629 237.949844,38.362164 
	C233.495255,38.290974 228.900452,40.675953 224.546204,42.404362 
	C220.106140,44.166828 216.073273,47.560162 211.532089,48.355797 
	C193.909271,51.443386 176.165405,53.853870 158.446625,56.375996 
	C143.186783,58.548115 127.930138,60.803078 112.614449,62.501770 
	C101.838058,63.697002 90.900711,63.841690 80.647324,59.536106 
	C74.669495,57.025909 69.087425,53.573261 62.772263,50.252808 
	C62.265820,52.689045 61.287487,55.162071 61.346577,57.610062 
	C61.446907,61.766476 62.076591,65.926720 62.725822,70.047226 
	C63.134502,72.641045 63.282204,75.701233 64.754776,77.630150 
	C71.959137,87.067032 78.083794,97.666061 89.951698,103.381401 
	C91.644135,104.183220 93.336563,104.985031 95.592896,106.292549 
	C97.043732,106.365097 98.494560,106.437645 100.502838,106.572121 
	C100.974632,106.301292 101.446434,106.030472 102.688477,105.812126 
	C103.437012,105.651276 104.185547,105.490425 105.860374,105.508675 
	C110.595764,105.441727 115.331154,105.374786 120.845009,105.536217 
	C121.924835,105.580521 123.004662,105.624825 124.336037,106.031998 
	C124.867737,105.947281 125.399429,105.862564 126.726036,105.857475 
	C127.519585,105.777260 128.313126,105.697044 129.781815,106.039406 
	C137.172379,106.345001 144.646561,107.913239 152.609970,104.756111 
	C155.718445,104.296539 158.826935,103.836967 162.807755,103.415756 
	C165.509583,103.189171 168.211426,102.962593 171.790878,102.869919 
	C173.839890,102.720665 175.888901,102.571411 178.576126,102.640213 
	C179.591080,102.203911 180.606049,101.767616 182.083832,101.455322 
	C182.420258,101.463058 182.714935,101.355957 183.575363,101.336945 
	C185.012283,101.105362 186.449203,100.873787 188.671844,100.702293 
	C189.429382,100.501610 190.186905,100.300926 191.848953,100.275002 
	C192.744247,100.453072 193.639557,100.631142 194.254684,101.422249 
	C194.120850,101.849518 193.987015,102.276779 193.305099,102.973892 
	C192.877014,103.649261 192.448944,104.324638 191.448364,105.431351 
	C190.522827,106.522491 189.597275,107.613632 188.735565,108.936913 
	C188.735565,108.936913 188.921692,108.765129 188.921692,108.765129 
	C188.921692,108.765129 188.759750,108.566391 188.370682,109.197601 
	C187.868423,110.044243 187.366165,110.890892 186.307343,112.040779 
	C185.295532,113.372963 184.283722,114.705147 182.939880,116.293892 
	C182.939880,116.293892 182.863647,116.706520 182.356537,116.956657 
	C182.183182,117.282471 182.009827,117.608284 181.286896,118.200943 
	C180.861847,118.890320 180.436798,119.579697 179.654419,120.323364 
	C179.420868,120.505112 179.383163,120.721077 178.991272,121.518448 
	C178.699493,121.942932 178.407730,122.367416 177.614532,122.999916 
	C177.245544,123.608139 176.876556,124.216362 176.053162,125.097725 
	C175.685059,125.694061 175.316940,126.290390 174.380264,127.067543 
	C173.988586,127.736938 173.596909,128.406326 172.723938,129.379395 
	C172.462402,129.875732 172.200867,130.372070 171.359314,131.051239 
	C170.954315,131.724960 170.549316,132.398682 170.071854,133.073608 
	C170.071854,133.073608 170.077744,133.145828 169.496002,133.339661 
	C168.916519,134.161545 168.337051,134.983429 167.864151,135.868805 
	C167.864151,135.868805 167.800247,135.762482 167.202438,135.969574 
	C166.499802,136.992233 165.797180,138.014908 164.560715,139.288193 
	C163.977524,140.061096 163.394333,140.834000 162.244522,141.895233 
	C161.562485,142.940384 160.880447,143.985519 159.678909,145.364563 
	C159.097275,146.198624 158.515656,147.032700 157.360748,148.104752 
	C156.945023,148.742767 156.529297,149.380783 155.978256,150.432846 
	C155.978256,150.432846 155.918732,150.864365 155.299240,151.082275 
	C154.441132,152.047012 153.583023,153.011734 152.176636,154.364594 
	C150.380539,155.139999 148.646393,156.324585 146.775772,156.607758 
	C142.553314,157.246979 138.263412,157.440613 133.279099,157.759140 
	C131.598343,157.606766 129.917572,157.454391 127.600571,157.161392 
	C127.034645,157.733551 126.468719,158.305710 125.419350,159.285904 
	C124.620544,159.531830 123.821747,159.777771 122.400696,160.061920 
	C121.968506,160.732941 121.536316,161.403946 121.038498,162.022507 
	C121.038498,162.022507 121.083099,162.093491 120.564171,162.163940 
	C120.398674,162.458969 120.233185,162.753998 119.666687,163.468887 
	C119.482727,163.995605 119.298767,164.522324 118.746498,165.597336 
	C118.770882,166.669128 118.795265,167.740936 118.576050,169.592575 
	C118.608261,172.193451 118.640472,174.794342 118.624352,177.933167 
	C118.699944,178.282272 118.775536,178.631378 118.627777,179.440582 
	C119.115700,180.226624 119.603630,181.012680 120.544128,182.269073 
	C120.941444,182.785950 121.338753,183.302841 121.511177,184.516815 
	C122.743408,186.114471 123.975639,187.712128 125.617188,189.678055 
	C125.777306,189.767761 125.937416,189.857483 126.273285,190.736496 
	C125.785500,192.233429 125.581680,193.914246 124.754662,195.191528 
	C122.599586,198.519913 120.171303,201.671402 117.481583,204.995697 
	C117.481583,204.995697 117.100334,205.043747 116.465805,205.156677 
	C116.007576,205.811417 115.549347,206.466141 115.022911,207.041809 
z"/>
<path fill="rgb(229, 231, 235)" opacity="1.000000" stroke="none" 
	d="
M165.015198,278.126404 
	C164.573257,278.139771 164.131332,278.153137 163.004150,278.198914 
	C160.216904,278.856354 158.114899,279.481384 156.012894,280.106415 
	C155.584503,280.132111 155.156113,280.157837 154.064209,280.230286 
	C151.598175,280.858917 149.795654,281.440796 147.993134,282.022705 
	C147.567413,282.078003 147.141693,282.133331 146.134415,282.286987 
	C145.045517,282.662994 144.538208,282.940704 144.030899,283.218414 
	C143.602310,283.246399 143.173721,283.274414 142.088074,283.336304 
	C139.627182,283.961823 137.823364,284.553436 136.019531,285.145081 
	C135.588547,285.159332 135.157578,285.173615 134.127197,285.227264 
	C133.024475,285.553314 132.521133,285.839996 132.017792,286.126648 
	C131.591797,286.186188 131.165817,286.245758 130.097626,286.316559 
	C128.316269,286.627228 127.177094,286.926697 126.037926,287.226166 
	C123.988937,287.571442 121.939941,287.916718 119.210403,288.302917 
	C117.866554,288.782562 117.203247,289.221252 116.539948,289.659912 
	C116.186302,289.723236 115.832672,289.786530 114.981628,289.968201 
	C114.181465,290.277435 113.878693,290.468353 113.575928,290.659271 
	C113.575935,290.659271 113.238792,290.705200 112.784027,290.791412 
	C111.612663,291.290771 110.896065,291.703918 110.179474,292.117065 
	C110.179474,292.117065 110.107246,292.106110 109.796844,292.157654 
	C108.797562,292.627350 108.108681,293.045532 107.419800,293.463745 
	C107.419792,293.463715 107.121857,293.579102 106.743042,293.716614 
	C106.070770,294.094116 105.777306,294.334045 105.483841,294.573975 
	C102.955956,296.153290 100.384712,297.667816 97.909065,299.325195 
	C92.428299,302.994324 88.419357,302.224579 82.658333,299.121735 
	C74.951530,294.970917 71.017593,288.826599 68.591690,280.758545 
	C67.088661,275.759796 64.147659,271.180328 61.732342,266.474121 
	C60.336674,263.754669 64.902382,256.681458 68.222794,255.045303 
	C71.424438,253.467651 74.531761,251.114090 76.818611,248.380371 
	C82.396416,241.712646 87.475258,234.627518 93.259262,227.512131 
	C92.286613,230.825043 90.809731,234.336288 89.077950,238.026825 
	C86.491119,241.772598 84.159180,245.339081 81.827240,248.905579 
	C82.489868,249.342972 83.152496,249.780365 83.815125,250.217758 
	C86.783241,245.802078 89.751358,241.386398 92.947037,236.710266 
	C99.854706,227.377792 106.534805,218.305786 113.497620,209.118912 
	C114.225723,208.365417 114.671097,207.726776 115.116486,207.088135 
	C115.116486,207.088135 115.022911,207.041809 115.348633,206.990326 
	C116.149681,206.307129 116.625008,205.675430 117.100327,205.043747 
	C117.100334,205.043747 117.481583,204.995697 117.965881,204.953857 
	C119.336609,205.242050 120.202888,205.728943 121.116638,205.846375 
	C121.713821,205.923111 122.379852,205.464081 123.328217,205.118973 
	C127.243599,200.408188 130.845810,195.823471 134.448029,191.238754 
	C133.619736,190.512054 132.791428,189.785355 131.963135,189.058655 
	C130.939514,190.676208 129.915878,192.293762 128.655670,193.682556 
	C127.645233,192.284927 126.871384,191.116058 126.097534,189.947189 
	C125.937416,189.857483 125.777306,189.767761 125.304199,189.210907 
	C123.906166,187.102402 122.821114,185.461060 121.736069,183.819717 
	C121.338753,183.302841 120.941444,182.785950 120.333084,181.710052 
	C119.698402,180.427505 119.274765,179.703995 118.851120,178.980484 
	C118.775536,178.631378 118.699944,178.282272 118.735962,177.248779 
	C118.838264,173.980499 118.828957,171.396606 118.819649,168.812729 
	C118.795265,167.740936 118.770882,166.669128 119.223518,165.259125 
	C120.150040,164.297501 120.599541,163.674088 121.100166,162.812897 
	C121.151299,162.575119 121.083099,162.093491 121.083099,162.093491 
	C121.083099,162.093491 121.038498,162.022507 121.379395,162.017853 
	C122.154503,161.350021 122.588715,160.686859 123.022934,160.023697 
	C123.821747,159.777771 124.620544,159.531830 125.959679,159.054474 
	C127.078941,158.316025 127.657875,157.809021 128.236816,157.302002 
	C129.917572,157.454391 131.598343,157.606766 133.899506,158.023438 
	C135.375061,158.750687 136.432297,159.028351 137.053452,159.705841 
	C142.073608,165.181229 148.240448,163.248947 154.369110,162.245178 
	C154.768860,161.748550 155.034958,161.499237 155.576874,161.208832 
	C155.971115,160.842682 156.089508,160.517609 156.287277,159.915192 
	C156.630005,159.134628 156.893356,158.631409 157.352417,157.976013 
	C157.839615,157.604401 157.966949,157.313232 158.099731,156.711151 
	C158.473907,155.975250 158.678497,155.478485 159.226868,154.926483 
	C163.453720,150.380798 167.336838,145.890335 171.442444,141.267258 
	C171.856171,140.852921 172.047394,140.571198 172.241180,140.245087 
	C172.243744,140.200714 172.183243,140.265869 172.437653,140.135284 
	C172.847519,139.664337 173.002960,139.323944 173.411285,138.787857 
	C174.448822,137.395493 175.233475,136.198853 176.278595,134.849823 
	C176.110245,134.217606 175.681427,133.737778 175.252609,133.257950 
	C174.769470,133.818375 174.286346,134.378815 173.555573,135.126160 
	C172.305954,136.564575 171.303970,137.816086 170.041550,139.283936 
	C166.207672,143.334869 162.634232,147.169464 158.786728,150.744446 
	C158.329987,150.311661 158.147339,150.138535 157.978241,149.615173 
	C157.972534,148.798889 157.953293,148.332825 157.934036,147.866760 
	C158.515656,147.032700 159.097275,146.198624 160.270828,145.121582 
	C161.512207,143.788040 162.161667,142.697479 162.811127,141.606903 
	C163.394333,140.834000 163.977524,140.061096 165.158173,139.095032 
	C166.437164,137.855392 167.118713,136.808945 167.800247,135.762482 
	C167.800247,135.762482 167.864151,135.868805 168.145142,135.811813 
	C168.976685,134.885162 169.527222,134.015503 170.077744,133.145828 
	C170.077744,133.145828 170.071854,133.073608 170.408875,132.989609 
	C171.143707,132.226547 171.541519,131.547470 171.939331,130.868408 
	C172.200867,130.372070 172.462402,129.875732 173.255783,129.137054 
	C174.174698,128.225388 174.561768,127.556061 174.948837,126.886726 
	C175.316940,126.290390 175.685059,125.694061 176.553848,124.885498 
	C177.408356,124.046150 177.762161,123.419029 178.115967,122.791901 
	C178.407730,122.367416 178.699493,121.942932 179.398209,121.170738 
	C179.957977,120.669685 180.026840,120.485039 180.011749,120.269073 
	C180.436798,119.579697 180.861847,118.890320 181.809540,117.935837 
	C182.509323,117.349335 182.686493,117.027924 182.863647,116.706520 
	C182.863647,116.706520 182.939880,116.293892 183.432281,116.097549 
	C184.904434,114.513313 185.884171,113.125420 186.863907,111.737534 
	C187.366165,110.890892 187.868423,110.044243 188.569061,108.933090 
	C188.767426,108.668571 188.671738,108.704773 188.671738,108.704773 
	C189.597275,107.613632 190.522827,106.522491 192.048523,105.129730 
	C193.050171,104.120087 193.451675,103.412064 193.853180,102.704041 
	C193.987015,102.276779 194.120850,101.849518 194.468109,100.876328 
	C193.435822,100.253693 192.190140,100.176971 190.944443,100.100243 
	C190.186905,100.300926 189.429382,100.501610 187.992554,100.502609 
	C185.864807,100.579948 184.416336,100.856979 182.967865,101.134010 
	C182.714935,101.355957 182.420258,101.463058 181.507172,101.295517 
	C179.932983,101.564522 178.935455,101.993347 177.937912,102.422157 
	C175.888901,102.571411 173.839890,102.720665 171.030273,102.606369 
	C167.491577,102.687683 164.713501,103.032539 161.935410,103.377396 
	C158.826935,103.836967 155.718445,104.296539 151.753464,104.520889 
	C144.907532,104.511505 138.916779,104.708397 132.929764,104.986305 
	C131.648407,105.045784 130.380676,105.398956 129.106674,105.616837 
	C128.313126,105.697044 127.519585,105.777260 126.182373,105.656021 
	C125.120636,105.526093 124.602562,105.597610 124.084488,105.669128 
	C123.004662,105.624825 121.924835,105.580521 120.212616,105.153641 
	C114.698174,104.957237 109.816124,105.143410 104.934082,105.329575 
	C104.185547,105.490425 103.437012,105.651276 102.131050,105.640121 
	C101.030884,105.815483 100.488144,106.162842 99.945404,106.510193 
	C98.494560,106.437645 97.043732,106.365097 95.204742,105.737671 
	C93.073555,104.422714 91.330521,103.662636 89.587486,102.902557 
	C78.083794,97.666061 71.959137,87.067032 64.754776,77.630150 
	C63.282204,75.701233 63.134502,72.641045 62.725822,70.047226 
	C62.076591,65.926720 61.446907,61.766476 61.346577,57.610062 
	C61.287487,55.162071 62.265820,52.689045 62.772263,50.252808 
	C69.087425,53.573261 74.669495,57.025909 80.647324,59.536106 
	C90.900711,63.841690 101.838058,63.697002 112.614449,62.501770 
	C127.930138,60.803078 143.186783,58.548115 158.446625,56.375996 
	C176.165405,53.853870 193.909271,51.443386 211.532089,48.355797 
	C216.073273,47.560162 220.106140,44.166828 224.546204,42.404362 
	C228.900452,40.675953 233.495255,38.290974 237.949844,38.362164 
	C245.362946,38.480629 252.035446,41.735928 257.090942,47.599903 
	C261.733551,52.984928 266.187103,58.564949 271.180542,63.606857 
	C276.602051,69.081001 278.585571,75.905319 279.515686,83.033020 
	C280.292816,88.988197 273.004761,96.548210 267.153015,97.690292 
	C264.211823,98.264336 261.123993,99.803322 258.843658,101.766747 
	C244.865601,113.802139 231.099655,126.083908 216.769669,138.572601 
	C215.839279,139.229630 215.402298,139.597672 214.965302,139.965714 
	C214.695663,140.176666 214.426041,140.387634 213.761261,140.832581 
	C212.920197,141.007614 212.474304,140.948669 212.053207,140.544525 
	C213.869919,137.809830 215.661804,135.420319 217.453690,133.030807 
	C216.880753,132.599777 216.307831,132.168747 215.734894,131.737717 
	C213.147369,135.116974 210.559830,138.496231 207.693634,141.931732 
	C207.217529,142.297211 207.020081,142.606445 206.614410,142.933533 
	C206.406189,142.951370 206.023026,143.118408 205.682358,143.113281 
	C198.937653,149.005173 192.533615,154.902191 186.129578,160.799225 
	C186.411804,161.394989 186.694031,161.990738 186.976257,162.586502 
	C188.956680,162.586502 190.937119,162.586502 193.155350,162.670258 
	C193.649521,162.572464 193.905884,162.390884 194.077332,162.188644 
	C193.992416,162.167969 194.154556,162.236084 194.364532,162.474365 
	C195.370224,162.837067 196.165939,162.961456 196.961670,163.085846 
	C198.324509,163.162323 199.687332,163.238785 201.569412,163.650345 
	C202.984436,164.470764 203.880219,164.956100 204.650543,165.373459 
	C203.651657,166.507751 202.753296,167.527908 201.854919,168.548050 
	C201.679214,168.633911 201.503525,168.719757 200.711090,168.785248 
	C199.609543,169.464890 199.124741,170.164902 198.639923,170.864899 
	C199.438171,171.235168 200.236404,171.605453 201.034653,171.975723 
	C204.060989,171.911102 207.087341,171.846481 210.692886,172.200714 
	C211.724426,173.384171 212.176758,174.148758 212.629089,174.913361 
	C211.156372,175.179337 209.590500,175.901917 208.228745,175.624084 
	C204.426651,174.848297 200.697250,173.613419 197.863571,178.612442 
	C200.313492,178.967438 202.271042,179.093658 204.137619,179.573700 
	C205.515579,179.928070 206.774872,180.743927 208.087036,181.354156 
	C207.649551,181.326447 207.212051,181.298737 206.066467,181.207428 
	C202.479019,180.976883 199.649551,180.877106 200.346786,185.081573 
	C197.920837,185.433350 195.807068,185.739838 192.543549,186.213058 
	C195.592255,187.029465 197.394272,187.512024 200.537277,188.353699 
	C190.032104,189.400406 181.030594,190.297287 172.029083,191.194168 
	C171.573227,191.169205 171.117371,191.144241 170.099045,190.930328 
	C168.045700,190.623413 166.554825,190.505447 165.063950,190.387466 
	C163.510666,190.713852 161.957367,191.040253 159.891632,191.680939 
	C159.279251,192.339172 159.179321,192.683090 159.079407,193.026993 
	C158.786911,193.801193 158.494431,194.575394 157.698059,195.730286 
	C154.298294,200.687927 151.395508,205.260513 148.509842,209.843872 
	C147.318527,211.736038 146.462708,213.560043 149.802765,214.087418 
	C149.207489,215.121735 148.612228,216.156052 147.598740,217.612396 
	C147.015472,218.523331 146.850433,219.012268 146.685379,219.501190 
	C146.685379,219.501190 146.605438,219.619888 146.275986,219.832779 
	C144.124420,223.801147 142.302307,227.556625 140.480194,231.312103 
	C139.982910,232.231888 139.485626,233.151672 138.628281,234.485504 
	C138.122604,235.235107 137.977005,235.570648 137.831390,235.906189 
	C137.502151,236.287720 137.172913,236.669235 136.493774,237.418686 
	C136.009079,238.140945 135.874283,238.495285 135.739487,238.849625 
	C135.162537,239.622864 134.585571,240.396118 133.668274,241.573608 
	C133.224182,242.321915 133.120422,242.665939 133.016678,243.009979 
	C132.342682,244.049454 131.668671,245.088928 130.607269,246.604034 
	C129.795395,248.053268 129.370911,249.026855 128.544952,250.921326 
	C130.619736,250.422394 131.799988,250.138596 132.980225,249.854767 
	C134.734085,249.698593 136.487961,249.542404 138.912628,249.418976 
	C142.046417,248.904236 144.509384,248.356750 146.972366,247.809296 
	C148.328934,247.687408 149.685516,247.565536 151.828522,247.455292 
	C155.577942,246.780273 158.540924,246.093613 161.503922,245.406952 
	C162.129578,245.380066 162.755249,245.353165 163.865295,245.353104 
	C164.897278,245.241898 165.444870,245.103821 165.992462,244.965759 
	C167.359070,244.911591 168.725677,244.857422 170.862518,244.833725 
	C173.074753,244.499023 174.516754,244.133835 175.958755,243.768661 
	C181.656494,243.698730 187.354248,243.628784 193.879318,243.634750 
	C197.818802,243.544830 200.930954,243.379013 204.043106,243.213196 
	C204.990555,243.274307 205.938019,243.335434 207.504517,243.626221 
	C210.790741,244.090332 213.457916,244.324768 216.125107,244.559204 
	C217.806778,244.681564 219.488449,244.803925 221.809570,245.052078 
	C223.284485,245.022034 224.119934,244.866196 224.955383,244.710373 
	C225.914917,244.840530 226.874451,244.970673 228.338989,245.500549 
	C233.613663,246.374435 238.383331,246.848587 243.153000,247.322739 
	C245.478653,247.539505 247.804291,247.756256 250.898468,248.132401 
	C254.818542,248.710861 257.970093,249.129913 261.121643,249.548965 
	C262.803619,249.699463 264.485596,249.849960 266.920471,250.152206 
	C271.794556,250.782257 275.915710,251.260544 280.407104,251.803406 
	C281.527100,251.883163 282.276855,251.898331 283.347351,252.078003 
	C286.437775,252.691803 289.207428,253.141098 291.977112,253.590393 
	C292.566833,253.672852 293.156555,253.755310 294.313171,253.969849 
	C296.093536,254.597870 297.307007,255.093811 298.520508,255.589767 
	C298.559662,258.756744 298.598816,261.923706 298.576660,265.898285 
	C298.213104,269.240723 299.579926,272.811829 294.855255,272.600922 
	C293.507050,272.388733 292.158875,272.176544 290.026733,271.844208 
	C280.136414,270.810730 271.030029,269.897369 260.929810,268.884308 
	C263.854767,273.373077 262.085541,274.407898 258.693146,274.436218 
	C254.743759,274.469177 250.795090,274.587189 246.846100,274.668274 
	C242.533646,274.484772 238.221191,274.301300 233.204132,273.973999 
	C231.320755,273.835083 230.141998,273.839935 228.963242,273.844788 
	C225.590958,273.647888 222.218689,273.450989 218.059494,273.113068 
	C212.802231,272.820374 208.331879,272.668701 203.861526,272.517029 
	C203.477036,272.469177 203.092560,272.421326 202.103516,272.338898 
	C200.675888,272.600342 199.852814,272.896393 199.029755,273.192444 
	C197.331192,273.203461 195.632614,273.214508 193.194412,273.310913 
	C191.305603,273.626892 190.156433,273.857513 189.007263,274.088196 
	C187.964584,274.147827 186.921890,274.207458 185.107834,274.334045 
	C181.560150,274.958466 178.783844,275.515869 176.007538,276.073303 
	C174.330597,276.235077 172.653641,276.396881 170.237946,276.553162 
	C168.004532,277.073883 166.509872,277.600159 165.015198,278.126404 
M137.824524,193.348206 
	C136.130859,195.532654 134.281876,197.617020 132.790100,199.931580 
	C131.471909,201.976807 130.551804,204.278610 129.455933,206.467133 
	C130.042297,206.780975 130.628662,207.094833 131.215027,207.408676 
	C135.420593,201.818497 139.626144,196.228317 143.831696,190.638138 
	C143.319183,190.139862 142.806656,189.641586 142.294144,189.143311 
	C140.921021,190.345032 139.547882,191.546738 137.824524,193.348206 
z"/>
<path fill="rgb(124, 58, 237)" opacity="1.000000" stroke="none" 
	d="
M247.097534,274.938232 
	C250.795090,274.587189 254.743759,274.469177 258.693146,274.436218 
	C262.085541,274.407898 263.854767,273.373077 260.929810,268.884308 
	C271.030029,269.897369 280.136414,270.810730 289.616333,271.880920 
	C289.694946,273.234802 286.894257,271.738586 287.732452,275.009918 
	C288.496674,277.992523 284.966553,277.962311 282.298218,277.651733 
	C275.254272,276.831940 268.187073,276.173584 261.114166,275.655304 
	C256.539398,275.320068 251.938278,275.344727 247.097534,274.938232 
z"/>
<path fill="rgb(124, 58, 237)" opacity="1.000000" stroke="none" 
	d="
M113.214905,209.233765 
	C106.534805,218.305786 99.854706,227.377792 92.613083,236.831131 
	C91.145325,237.424133 90.239082,237.635834 89.332840,237.847534 
	C90.809731,234.336288 92.286613,230.825043 93.408440,227.215668 
	C93.971046,226.085114 94.888718,225.052689 96.523315,224.030975 
	C100.170265,220.176773 103.100281,216.311859 106.030289,212.446945 
	C107.809044,209.046417 109.587799,205.645889 111.366547,202.245361 
	C111.932121,202.393066 112.497696,202.540771 113.063271,202.688477 
	C113.063271,203.909897 113.063271,205.131317 113.031998,206.675995 
	C113.000717,206.999252 113.007256,206.992142 112.761726,207.038681 
	C112.585670,207.625458 112.655151,208.165695 112.847290,208.837799 
	C112.969955,208.969681 113.214905,209.233765 113.214905,209.233765 
z"/>
<path fill="rgb(124, 58, 237)" opacity="1.000000" stroke="none" 
	d="
M192.917542,162.586502 
	C190.937119,162.586502 188.956680,162.586502 186.976257,162.586502 
	C186.694031,161.990738 186.411804,161.394989 186.129578,160.799225 
	C192.533615,154.902191 198.937653,149.005173 205.740082,143.385590 
	C207.090637,144.108093 208.042786,144.553177 209.250061,145.004456 
	C209.675323,145.013000 209.845459,145.015320 210.061859,145.066803 
	C210.108139,145.115982 210.198883,145.215988 210.198883,145.215973 
	C206.827728,148.742050 203.456589,152.268112 199.431870,156.082413 
	C198.518570,157.094574 198.258865,157.818512 197.999146,158.542435 
	C197.999146,158.542435 197.754532,158.899506 197.266510,158.957367 
	C195.903854,160.088852 195.029205,161.162460 194.154556,162.236084 
	C194.154556,162.236084 193.992416,162.167969 193.843430,162.119873 
	C193.336914,162.094666 193.077942,162.266235 192.917542,162.586502 
z"/>
<path fill="rgb(124, 58, 237)" opacity="1.000000" stroke="none" 
	d="
M172.341660,191.408936 
	C181.030594,190.297287 190.032104,189.400406 200.537277,188.353699 
	C197.394272,187.512024 195.592255,187.029465 192.543549,186.213058 
	C195.807068,185.739838 197.920837,185.433350 200.346786,185.081573 
	C199.649551,180.877106 202.479019,180.976883 205.744827,181.280624 
	C203.883911,188.707581 199.187408,191.749069 191.385818,191.145447 
	C185.191360,190.666168 178.901657,191.418304 172.341660,191.408936 
z"/>
<path fill="rgb(124, 58, 237)" opacity="1.000000" stroke="none" 
	d="
M154.235458,162.492508 
	C148.240448,163.248947 142.073608,165.181229 137.053452,159.705841 
	C136.432297,159.028351 135.375061,158.750687 134.260422,158.051620 
	C138.263412,157.440613 142.553314,157.246979 146.775772,156.607758 
	C148.646393,156.324585 150.380539,155.139999 152.779984,154.228378 
	C153.954910,154.435150 154.526474,154.778122 154.972504,155.437271 
	C152.819550,157.451477 150.792145,159.149521 147.739700,161.706085 
	C151.050751,162.106949 152.643097,162.299728 154.235458,162.492508 
z"/>
<path fill="rgb(124, 58, 237)" opacity="1.000000" stroke="none" 
	d="
M150.089706,213.992874 
	C146.462708,213.560043 147.318527,211.736038 148.509842,209.843872 
	C151.395508,205.260513 154.298294,200.687927 157.517685,195.998383 
	C160.680557,204.097733 153.414474,208.121918 150.089706,213.992874 
z"/>
<path fill="rgb(124, 58, 237)" opacity="1.000000" stroke="none" 
	d="
M280.036865,251.738831 
	C275.915710,251.260544 271.794556,250.782257 267.342712,250.122742 
	C271.958069,249.089645 276.897430,248.195953 281.852905,247.402954 
	C284.470032,246.984131 291.493561,250.924622 292.104187,253.346893 
	C289.207428,253.141098 286.437775,252.691803 283.523895,251.892303 
	C283.792236,251.107086 284.204773,250.672089 284.617279,250.237091 
	C282.885071,250.081589 281.152832,249.926086 279.420593,249.770569 
	C279.626007,250.426666 279.831421,251.082748 280.036865,251.738831 
z"/>
<path fill="rgb(124, 58, 237)" opacity="1.000000" stroke="none" 
	d="
M208.344452,181.491730 
	C206.774872,180.743927 205.515579,179.928070 204.137619,179.573700 
	C202.271042,179.093658 200.313492,178.967438 197.863571,178.612442 
	C200.697250,173.613419 204.426651,174.848297 208.228745,175.624084 
	C209.590500,175.901917 211.156372,175.179337 212.629089,174.913361 
	C212.176758,174.148758 211.724426,173.384171 211.144608,172.260590 
	C212.246094,172.262436 213.839493,172.296906 214.565796,173.107910 
	C214.993530,173.585541 214.345947,175.535141 213.654388,176.401611 
	C212.149429,178.287216 210.306595,179.903152 208.344452,181.491730 
z"/>
<path fill="rgb(124, 58, 237)" opacity="1.000000" stroke="none" 
	d="
M126.185410,190.341843 
	C126.871384,191.116058 127.645233,192.284927 128.537292,193.996918 
	C127.555344,195.978897 126.222664,197.299225 125.413551,198.886444 
	C124.391029,200.892288 123.795021,203.115555 123.015045,205.245041 
	C122.379852,205.464081 121.713821,205.923111 121.116638,205.846375 
	C120.202888,205.728943 119.336609,205.242050 118.151085,204.902725 
	C120.171303,201.671402 122.599586,198.519913 124.754662,195.191528 
	C125.581680,193.914246 125.785500,192.233429 126.185410,190.341843 
z"/>
<path fill="rgb(124, 58, 237)" opacity="1.000000" stroke="none" 
	d="
M129.444244,105.828125 
	C130.380676,105.398956 131.648407,105.045784 132.929764,104.986305 
	C138.916779,104.708397 144.907532,104.511505 151.346588,104.433578 
	C144.646561,107.913239 137.172379,106.345001 129.444244,105.828125 
z"/>
<path fill="rgb(124, 58, 237)" opacity="1.000000" stroke="none" 
	d="
M105.650116,212.471664 
	C103.100281,216.311859 100.170265,220.176773 96.851212,224.031616 
	C99.398094,220.179855 102.334007,216.338120 105.650116,212.471664 
z"/>
<path fill="rgb(124, 58, 237)" opacity="1.000000" stroke="none" 
	d="
M105.397232,105.419128 
	C109.816124,105.143410 114.698174,104.957237 119.823380,105.039452 
	C115.331154,105.374786 110.595764,105.441727 105.397232,105.419128 
z"/>
<path fill="rgb(124, 58, 237)" opacity="1.000000" stroke="none" 
	d="
M202.209229,168.585693 
	C202.753296,167.527908 203.651657,166.507751 204.650543,165.373459 
	C203.880219,164.956100 202.984436,164.470764 201.970795,163.730927 
	C203.895294,163.888535 205.937653,164.300644 207.979996,164.712753 
	C206.174500,166.016281 204.369019,167.319809 202.209229,168.585693 
z"/>
<path fill="rgb(124, 58, 237)" opacity="1.000000" stroke="none" 
	d="
M242.930359,247.060074 
	C238.383331,246.848587 233.613663,246.374435 228.687164,245.611450 
	C233.256134,245.814209 237.981918,246.305801 242.930359,247.060074 
z"/>
<path fill="rgb(124, 58, 237)" opacity="1.000000" stroke="none" 
	d="
M140.785812,231.188065 
	C142.302307,227.556625 144.124420,223.801147 146.231812,219.889069 
	C144.708527,223.509644 142.899979,227.286835 140.785812,231.188065 
z"/>
<path fill="rgb(124, 58, 237)" opacity="1.000000" stroke="none" 
	d="
M204.091003,272.806702 
	C208.331879,272.668701 212.802231,272.820374 217.654465,273.154877 
	C213.464401,273.257233 208.892441,273.176788 204.091003,272.806702 
z"/>
<path fill="rgb(124, 58, 237)" opacity="1.000000" stroke="none" 
	d="
M295.052246,272.855347 
	C299.579926,272.811829 298.213104,269.240723 298.652802,266.337189 
	C300.977112,272.130371 300.118286,273.862335 295.052246,272.855347 
z"/>
<path fill="rgb(124, 58, 237)" opacity="1.000000" stroke="none" 
	d="
M260.957794,249.243835 
	C257.970093,249.129913 254.818542,248.710861 251.338226,248.108810 
	C254.270950,248.263443 257.532440,248.601074 260.957794,249.243835 
z"/>
<path fill="rgb(124, 58, 237)" opacity="1.000000" stroke="none" 
	d="
M203.724213,242.975708 
	C200.930954,243.379013 197.818802,243.544830 194.279312,243.560486 
	C197.036423,243.186295 200.220856,242.962250 203.724213,242.975708 
z"/>
<path fill="rgb(124, 58, 237)" opacity="1.000000" stroke="none" 
	d="
M162.371582,103.396576 
	C164.713501,103.032539 167.491577,102.687683 170.591461,102.539421 
	C168.211426,102.962593 165.509583,103.189171 162.371582,103.396576 
z"/>
<path fill="rgb(124, 58, 237)" opacity="1.000000" stroke="none" 
	d="
M176.292023,276.265869 
	C178.783844,275.515869 181.560150,274.958466 184.741058,274.476562 
	C182.289276,275.187561 179.432892,275.823029 176.292023,276.265869 
z"/>
<path fill="rgb(124, 58, 237)" opacity="1.000000" stroke="none" 
	d="
M215.909882,244.257889 
	C213.457916,244.324768 210.790741,244.090332 207.857849,243.572968 
	C210.292984,243.512222 212.993820,243.734390 215.909882,244.257889 
z"/>
<path fill="rgb(124, 58, 237)" opacity="1.000000" stroke="none" 
	d="
M161.093933,245.270630 
	C158.540924,246.093613 155.577942,246.780273 152.227554,247.361633 
	C154.788086,246.548981 157.736023,245.841644 161.093933,245.270630 
z"/>
<path fill="rgb(124, 58, 237)" opacity="1.000000" stroke="none" 
	d="
M118.697845,169.202652 
	C118.828957,171.396606 118.838264,173.980499 118.760117,176.979797 
	C118.640472,174.794342 118.608261,172.193451 118.697845,169.202652 
z"/>
<path fill="rgb(124, 58, 237)" opacity="1.000000" stroke="none" 
	d="
M146.685013,247.632416 
	C144.509384,248.356750 142.046417,248.904236 139.275482,249.321747 
	C141.444244,248.613052 143.920944,248.034302 146.685013,247.632416 
z"/>
<path fill="rgb(124, 58, 237)" opacity="1.000000" stroke="none" 
	d="
M121.623627,184.168274 
	C122.821114,185.461060 123.906166,187.102402 125.099548,189.026764 
	C123.975639,187.712128 122.743408,186.114471 121.623627,184.168274 
z"/>
<path fill="rgb(124, 58, 237)" opacity="1.000000" stroke="none" 
	d="
M156.287582,280.281189 
	C158.114899,279.481384 160.216904,278.856354 162.688522,278.303894 
	C160.892853,279.069611 158.727554,279.762787 156.287582,280.281189 
z"/>
<path fill="rgb(124, 58, 237)" opacity="1.000000" stroke="none" 
	d="
M155.098053,155.121109 
	C154.526474,154.778122 153.954910,154.435150 153.054123,154.034317 
	C153.583023,153.011734 154.441132,152.047012 155.853668,151.197662 
	C157.014755,151.570618 157.621429,151.828186 158.209946,152.444977 
	C158.138428,153.280548 158.085052,153.756927 157.718002,154.136551 
	C156.635574,154.400238 155.866806,154.760666 155.098053,155.121109 
z"/>
<path fill="rgb(124, 58, 237)" opacity="1.000000" stroke="none" 
	d="
M136.272858,285.328430 
	C137.823364,284.553436 139.627182,283.961823 141.786194,283.453796 
	C140.269669,284.195496 138.397919,284.853638 136.272858,285.328430 
z"/>
<path fill="rgb(124, 58, 237)" opacity="1.000000" stroke="none" 
	d="
M132.751328,249.621460 
	C131.799988,250.138596 130.619736,250.422394 128.544952,250.921326 
	C129.370911,249.026855 129.795395,248.053268 130.518738,246.904968 
	C131.385880,247.616211 131.954147,248.502182 132.751328,249.621460 
z"/>
<path fill="rgb(124, 58, 237)" opacity="1.000000" stroke="none" 
	d="
M148.250488,282.185364 
	C149.795654,281.440796 151.598175,280.858917 153.761230,280.342896 
	C152.250458,281.055206 150.379150,281.701599 148.250488,282.185364 
z"/>
<path fill="rgb(124, 58, 237)" opacity="1.000000" stroke="none" 
	d="
M175.697784,243.567917 
	C174.516754,244.133835 173.074753,244.499023 171.262161,244.737427 
	C172.406647,244.196152 173.921738,243.781662 175.697784,243.567917 
z"/>
<path fill="rgb(124, 58, 237)" opacity="1.000000" stroke="none" 
	d="
M212.028412,140.889709 
	C212.474304,140.948669 212.920197,141.007614 213.703705,141.089966 
	C212.963730,142.401535 211.886139,143.689728 210.503723,145.096954 
	C210.198883,145.215988 210.108139,145.115982 210.131805,144.743118 
	C210.779770,143.210083 211.404083,142.049896 212.028412,140.889709 
z"/>
<path fill="rgb(124, 58, 237)" opacity="1.000000" stroke="none" 
	d="
M183.271606,101.235474 
	C184.416336,100.856979 185.864807,100.579948 187.599701,100.472565 
	C186.449203,100.873787 185.012283,101.105362 183.271606,101.235474 
z"/>
<path fill="rgb(124, 58, 237)" opacity="1.000000" stroke="none" 
	d="
M165.243179,278.298279 
	C166.509872,277.600159 168.004532,277.073883 169.831116,276.661621 
	C168.599091,277.340485 167.035126,277.905304 165.243179,278.298279 
z"/>
<path fill="rgb(124, 58, 237)" opacity="1.000000" stroke="none" 
	d="
M165.305405,190.564606 
	C166.554825,190.505447 168.045700,190.623413 169.758087,190.966705 
	C168.502014,191.041931 167.024429,190.891846 165.305405,190.564606 
z"/>
<path fill="rgb(124, 58, 237)" opacity="1.000000" stroke="none" 
	d="
M194.364532,162.474365 
	C195.029205,161.162460 195.903854,160.088852 197.165680,159.002106 
	C197.244720,160.169968 196.936584,161.350952 196.795074,162.808899 
	C196.165939,162.961456 195.370224,162.837067 194.364532,162.474365 
z"/>
<path fill="rgb(124, 58, 237)" opacity="1.000000" stroke="none" 
	d="
M89.769592,103.141983 
	C91.330521,103.662636 93.073555,104.422714 94.922798,105.484818 
	C93.336563,104.985031 91.644135,104.183220 89.769592,103.141983 
z"/>
<path fill="rgb(124, 58, 237)" opacity="1.000000" stroke="none" 
	d="
M186.585632,111.889160 
	C185.884171,113.125420 184.904434,114.513313 183.598297,115.969269 
	C184.283722,114.705147 185.295532,113.372963 186.585632,111.889160 
z"/>
<path fill="rgb(124, 58, 237)" opacity="1.000000" stroke="none" 
	d="
M126.279099,287.397583 
	C127.177094,286.926697 128.316269,286.627228 129.799347,286.442078 
	C128.935593,286.893921 127.727936,287.231476 126.279099,287.397583 
z"/>
<path fill="rgb(124, 58, 237)" opacity="1.000000" stroke="none" 
	d="
M298.544312,255.181564 
	C297.307007,255.093811 296.093536,254.597870 294.608459,253.918427 
	C295.747284,254.081070 297.157715,254.427216 298.544312,255.181564 
z"/>
<path fill="rgb(124, 58, 237)" opacity="1.000000" stroke="none" 
	d="
M189.239563,274.285217 
	C190.156433,273.857513 191.305603,273.626892 192.802795,273.477051 
	C191.924500,273.865936 190.698196,274.174103 189.239563,274.285217 
z"/>
<path fill="rgb(124, 58, 237)" opacity="1.000000" stroke="none" 
	d="
M229.189575,274.072449 
	C230.141998,273.839935 231.320755,273.835083 232.740326,274.014526 
	C231.792740,274.232605 230.604340,274.266388 229.189575,274.072449 
z"/>
<path fill="rgb(124, 58, 237)" opacity="1.000000" stroke="none" 
	d="
M191.396698,100.187622 
	C192.190140,100.176971 193.435822,100.253693 194.608185,100.569809 
	C193.639557,100.631142 192.744247,100.453072 191.396698,100.187622 
z"/>
<path fill="rgb(124, 58, 237)" opacity="1.000000" stroke="none" 
	d="
M200.757034,171.649399 
	C200.236404,171.605453 199.438171,171.235168 198.639923,170.864899 
	C199.124741,170.164902 199.609543,169.464890 200.418732,168.809113 
	C200.655228,169.676590 200.567322,170.499832 200.757034,171.649399 
z"/>
<path fill="rgb(124, 58, 237)" opacity="1.000000" stroke="none" 
	d="
M162.527832,141.751068 
	C162.161667,142.697479 161.512207,143.788040 160.530579,144.954636 
	C160.880447,143.985519 161.562485,142.940384 162.527832,141.751068 
z"/>
<path fill="rgb(124, 58, 237)" opacity="1.000000" stroke="none" 
	d="
M167.501343,135.866028 
	C167.118713,136.808945 166.437164,137.855392 165.425079,138.969711 
	C165.797180,138.014908 166.499802,136.992233 167.501343,135.866028 
z"/>
<path fill="rgb(124, 58, 237)" opacity="1.000000" stroke="none" 
	d="
M199.228470,273.376648 
	C199.852814,272.896393 200.675888,272.600342 201.821838,272.419769 
	C201.238892,272.877106 200.333038,273.218994 199.228470,273.376648 
z"/>
<path fill="rgb(124, 58, 237)" opacity="1.000000" stroke="none" 
	d="
M224.744293,244.534195 
	C224.119934,244.866196 223.284485,245.022034 222.231140,245.017868 
	C222.853226,244.691254 223.693207,244.524643 224.744293,244.534195 
z"/>
<path fill="rgb(124, 58, 237)" opacity="1.000000" stroke="none" 
	d="
M178.257019,102.531189 
	C178.935455,101.993347 179.932983,101.564522 181.275757,101.233513 
	C180.606049,101.767616 179.591080,102.203911 178.257019,102.531189 
z"/>
<path fill="rgb(124, 58, 237)" opacity="1.000000" stroke="none" 
	d="
M118.739449,179.210541 
	C119.274765,179.703995 119.698402,180.427505 120.106796,181.474869 
	C119.603630,181.012680 119.115700,180.226624 118.739449,179.210541 
z"/>
<path fill="rgb(124, 58, 237)" opacity="1.000000" stroke="none" 
	d="
M169.786865,133.242737 
	C169.527222,134.015503 168.976685,134.885162 168.091858,135.780060 
	C168.337051,134.983429 168.916519,134.161545 169.786865,133.242737 
z"/>
<path fill="rgb(124, 58, 237)" opacity="1.000000" stroke="none" 
	d="
M127.918686,157.231689 
	C127.657875,157.809021 127.078941,158.316025 126.201401,158.850449 
	C126.468719,158.305710 127.034645,157.733551 127.918686,157.231689 
z"/>
<path fill="rgb(124, 58, 237)" opacity="1.000000" stroke="none" 
	d="
M121.049026,163.050674 
	C120.599541,163.674088 120.150040,164.297501 119.407669,164.984970 
	C119.298767,164.522324 119.482727,163.995605 120.112473,163.266464 
	C120.558266,163.064041 121.049026,163.050674 121.049026,163.050674 
z"/>
<path fill="rgb(124, 58, 237)" opacity="1.000000" stroke="none" 
	d="
M100.224121,106.541161 
	C100.488144,106.162842 101.030884,105.815483 101.745926,105.613884 
	C101.446434,106.030472 100.974632,106.301292 100.224121,106.541161 
z"/>
<path fill="rgb(124, 58, 237)" opacity="1.000000" stroke="none" 
	d="
M144.204544,283.381348 
	C144.538208,282.940704 145.045517,282.662994 145.844818,282.431183 
	C145.550598,282.832794 144.964401,283.188507 144.204544,283.381348 
z"/>
<path fill="rgb(124, 58, 237)" opacity="1.000000" stroke="none" 
	d="
M193.579132,102.838966 
	C193.451675,103.412064 193.050171,104.120087 192.334763,104.914062 
	C192.448944,104.324638 192.877014,103.649261 193.579132,102.838966 
z"/>
<path fill="rgb(124, 58, 237)" opacity="1.000000" stroke="none" 
	d="
M132.185883,286.290283 
	C132.521133,285.839996 133.024475,285.553314 133.822678,285.341034 
	C133.529678,285.761597 132.941818,286.107727 132.185883,286.290283 
z"/>
<path fill="rgb(124, 58, 237)" opacity="1.000000" stroke="none" 
	d="
M157.647400,147.985748 
	C157.953293,148.332825 157.972534,148.798889 157.670258,149.628265 
	C156.937027,150.000656 156.525299,150.009720 156.113586,150.018799 
	C156.529297,149.380783 156.945023,148.742767 157.647400,147.985748 
z"/>
<path fill="rgb(124, 58, 237)" opacity="1.000000" stroke="none" 
	d="
M165.816437,244.807434 
	C165.444870,245.103821 164.897278,245.241898 164.165649,245.259338 
	C164.534531,244.975525 165.087479,244.812317 165.816437,244.807434 
z"/>
<path fill="rgb(124, 58, 237)" opacity="1.000000" stroke="none" 
	d="
M156.045929,150.225830 
	C156.525299,150.009720 156.937027,150.000656 157.656708,149.978485 
	C158.147339,150.138535 158.329987,150.311661 158.718445,150.972351 
	C158.770859,151.756042 158.538803,151.964661 158.228088,152.085770 
	C157.621429,151.828186 157.014755,151.570618 156.163422,151.088699 
	C155.918732,150.864365 155.978256,150.432846 156.045929,150.225830 
z"/>
<path fill="rgb(124, 58, 237)" opacity="1.000000" stroke="none" 
	d="
M116.848846,289.723724 
	C117.203247,289.221252 117.866554,288.782562 118.832008,288.414612 
	C118.475357,288.919434 117.816551,289.353485 116.848846,289.723724 
z"/>
<path fill="rgb(124, 58, 237)" opacity="1.000000" stroke="none" 
	d="
M124.210266,105.850563 
	C124.602562,105.597610 125.120636,105.526093 125.784920,105.616211 
	C125.399429,105.862564 124.867737,105.947281 124.210266,105.850563 
z"/>
<path fill="rgb(124, 58, 237)" opacity="1.000000" stroke="none" 
	d="
M171.649323,130.959824 
	C171.541519,131.547470 171.143707,132.226547 170.445099,132.989014 
	C170.549316,132.398682 170.954315,131.724960 171.649323,130.959824 
z"/>
<path fill="rgb(124, 58, 237)" opacity="1.000000" stroke="none" 
	d="
M122.711815,160.042816 
	C122.588715,160.686859 122.154503,161.350021 121.412209,162.044083 
	C121.536316,161.403946 121.968506,160.732941 122.711815,160.042816 
z"/>
<path fill="rgb(124, 58, 237)" opacity="1.000000" stroke="none" 
	d="
M107.747421,293.543549 
	C108.108681,293.045532 108.797562,292.627350 109.794510,292.194092 
	C109.426727,292.660461 108.750877,293.141907 107.747421,293.543549 
z"/>
<path fill="rgb(124, 58, 237)" opacity="1.000000" stroke="none" 
	d="
M114.763748,207.054718 
	C114.671097,207.726776 114.225723,208.365417 113.497620,209.118912 
	C113.214905,209.233765 112.969955,208.969681 112.919647,208.557922 
	C112.915314,207.761505 112.961281,207.376816 113.007248,206.992142 
	C113.007256,206.992142 113.000717,206.999252 112.997337,207.002579 
	C113.466316,207.011032 113.938667,207.016174 114.763748,207.054718 
z"/>
<path fill="rgb(124, 58, 237)" opacity="1.000000" stroke="none" 
	d="
M116.783066,205.100220 
	C116.625008,205.675430 116.149681,206.307129 115.382736,207.029846 
	C115.549347,206.466141 116.007576,205.811417 116.783066,205.100220 
z"/>
<path fill="rgb(124, 58, 237)" opacity="1.000000" stroke="none" 
	d="
M174.664551,126.977135 
	C174.561768,127.556061 174.174698,128.225388 173.496429,128.985229 
	C173.596909,128.406326 173.988586,127.736938 174.664551,126.977135 
z"/>
<path fill="rgb(124, 58, 237)" opacity="1.000000" stroke="none" 
	d="
M177.865250,122.895905 
	C177.762161,123.419029 177.408356,124.046150 176.781036,124.748932 
	C176.876556,124.216362 177.245544,123.608139 177.865250,122.895905 
z"/>
<path fill="rgb(124, 58, 237)" opacity="1.000000" stroke="none" 
	d="
M110.503929,292.148346 
	C110.896065,291.703918 111.612663,291.290771 112.658493,290.906250 
	C112.267944,291.349792 111.548164,291.764709 110.503929,292.148346 
z"/>
<path fill="rgb(124, 58, 237)" opacity="1.000000" stroke="none" 
	d="
M215.273376,139.964630 
	C215.402298,139.597672 215.839279,139.229630 216.590942,138.853592 
	C216.464203,139.218246 216.022827,139.590897 215.273376,139.964630 
z"/>
<path fill="rgb(124, 58, 237)" opacity="1.000000" stroke="none" 
	d="
M198.278061,158.285095 
	C198.258865,157.818512 198.518570,157.094574 199.127304,156.160690 
	C199.169876,156.643066 198.863434,157.335403 198.278061,158.285095 
z"/>
<path fill="rgb(124, 58, 237)" opacity="1.000000" stroke="none" 
	d="
M146.943649,219.405075 
	C146.850433,219.012268 147.015472,218.523331 147.429092,217.927826 
	C147.519089,218.317154 147.360504,218.813065 146.943649,219.405075 
z"/>
<path fill="rgb(124, 58, 237)" opacity="1.000000" stroke="none" 
	d="
M105.782532,294.592285 
	C105.777306,294.334045 106.070770,294.094116 106.657852,293.851746 
	C106.661385,294.103119 106.371300,294.356842 105.782532,294.592285 
z"/>
<path fill="rgb(124, 58, 237)" opacity="1.000000" stroke="none" 
	d="
M188.703644,108.820847 
	C188.671738,108.704773 188.767426,108.668571 188.763580,108.617477 
	C188.759750,108.566391 188.921692,108.765129 188.921692,108.765129 
	C188.921692,108.765129 188.735565,108.936913 188.703644,108.820847 
z"/>
<path fill="rgb(124, 58, 237)" opacity="1.000000" stroke="none" 
	d="
M113.852966,290.715515 
	C113.878693,290.468353 114.181465,290.277435 114.760063,290.125183 
	C114.733925,290.366455 114.431961,290.569122 113.852966,290.715515 
z"/>
<path fill="rgb(124, 58, 237)" opacity="1.000000" stroke="none" 
	d="
M182.610092,116.831589 
	C182.686493,117.027924 182.509323,117.349335 182.084320,117.802422 
	C182.009827,117.608284 182.183182,117.282471 182.610092,116.831589 
z"/>
<path fill="rgb(124, 58, 237)" opacity="1.000000" stroke="none" 
	d="
M179.833084,120.296219 
	C180.026840,120.485039 179.957977,120.669685 179.673218,120.897156 
	C179.383163,120.721077 179.420868,120.505112 179.833084,120.296219 
z"/>
<path fill="rgb(124, 58, 237)" opacity="1.000000" stroke="none" 
	d="
M159.264130,192.873001 
	C159.179321,192.683090 159.279251,192.339172 159.664795,191.955948 
	C159.878174,192.243439 159.710999,192.510895 159.264130,192.873001 
z"/>
<path fill="rgb(124, 58, 237)" opacity="1.000000" stroke="none" 
	d="
M133.261108,242.877319 
	C133.120422,242.665939 133.224182,242.321915 133.572906,241.848846 
	C133.713776,242.061432 133.609650,242.403030 133.261108,242.877319 
z"/>
<path fill="rgb(124, 58, 237)" opacity="1.000000" stroke="none" 
	d="
M135.998779,238.717224 
	C135.874283,238.495285 136.009079,238.140945 136.408966,237.660461 
	C136.535385,237.884491 136.396729,238.234650 135.998779,238.717224 
z"/>
<path fill="rgb(124, 58, 237)" opacity="1.000000" stroke="none" 
	d="
M138.089294,235.789490 
	C137.977005,235.570648 138.122604,235.235107 138.526520,234.783783 
	C138.638962,235.002930 138.493073,235.337860 138.089294,235.789490 
z"/>
<path fill="rgb(124, 58, 237)" opacity="1.000000" stroke="none" 
	d="
M121.100159,162.812897 
	C121.049026,163.050674 120.558266,163.064041 120.312981,163.056534 
	C120.233185,162.753998 120.398674,162.458969 120.823639,162.128723 
	C121.083099,162.093491 121.151299,162.575119 121.100159,162.812897 
z"/>
<path fill="rgb(124, 58, 237)" opacity="1.000000" stroke="none" 
	d="
M137.999634,193.048340 
	C139.547882,191.546738 140.921021,190.345032 142.294144,189.143311 
	C142.806656,189.641586 143.319183,190.139862 143.831696,190.638138 
	C139.626144,196.228317 135.420593,201.818497 131.215027,207.408676 
	C130.628662,207.094833 130.042297,206.780975 129.455933,206.467133 
	C130.551804,204.278610 131.471909,201.976807 132.790100,199.931580 
	C134.281876,197.617020 136.130859,195.532654 137.999634,193.048340 
z"/>
<path fill="rgb(124, 58, 237)" opacity="1.000000" stroke="none" 
	d="
M158.209946,152.444977 
	C158.538803,151.964661 158.770859,151.756042 158.992523,151.231995 
	C162.634232,147.169464 166.207672,143.334869 170.239777,139.552963 
	C170.838776,139.777557 170.979126,139.949463 171.132843,140.441910 
	C171.170822,140.974945 171.195389,141.187408 171.219955,141.399872 
	C167.336838,145.890335 163.453720,150.380798 159.011963,154.905304 
	C158.161758,154.794159 158.021225,154.558807 158.031677,154.233307 
	C158.085052,153.756927 158.138428,153.280548 158.209946,152.444977 
z"/>
<path fill="rgb(124, 58, 237)" opacity="1.000000" stroke="none" 
	d="
M123.328209,205.118973 
	C123.795021,203.115555 124.391029,200.892288 125.413551,198.886444 
	C126.222664,197.299225 127.555344,195.978897 128.773895,194.225677 
	C129.915878,192.293762 130.939514,190.676208 131.963135,189.058655 
	C132.791428,189.785355 133.619736,190.512054 134.448029,191.238754 
	C130.845810,195.823471 127.243599,200.408188 123.328209,205.118973 
z"/>
<path fill="rgb(124, 58, 237)" opacity="1.000000" stroke="none" 
	d="
M89.077942,238.026825 
	C90.239082,237.635834 91.145325,237.424133 92.385521,237.091583 
	C89.751358,241.386398 86.783241,245.802078 83.815125,250.217758 
	C83.152496,249.780365 82.489868,249.342972 81.827240,248.905579 
	C84.159180,245.339081 86.491119,241.772598 89.077942,238.026825 
z"/>
<path fill="rgb(124, 58, 237)" opacity="1.000000" stroke="none" 
	d="
M212.053223,140.544525 
	C211.404083,142.049896 210.779770,143.210083 210.085510,144.693939 
	C209.845459,145.015320 209.675323,145.013000 209.198547,144.721756 
	C208.590652,143.957886 208.289429,143.482925 207.985474,142.724854 
	C207.979263,142.252991 207.975784,142.064255 207.972305,141.875504 
	C210.559830,138.496231 213.147369,135.116974 215.734894,131.737717 
	C216.307831,132.168747 216.880753,132.599777 217.453690,133.030807 
	C215.661804,135.420319 213.869919,137.809830 212.053223,140.544525 
z"/>
<path fill="rgb(124, 58, 237)" opacity="1.000000" stroke="none" 
	d="
M157.718002,154.136551 
	C158.021225,154.558807 158.161758,154.794159 158.668198,154.960526 
	C158.678497,155.478485 158.473907,155.975250 157.826828,156.785126 
	C157.308472,157.441544 157.232574,157.784882 157.156693,158.128204 
	C156.893356,158.631409 156.630005,159.134628 156.052704,160.007431 
	C155.592850,160.667984 155.446945,160.958954 155.301041,161.249924 
	C155.034958,161.499237 154.768860,161.748550 154.369110,162.245178 
	C152.643097,162.299728 151.050751,162.106949 147.739700,161.706085 
	C150.792145,159.149521 152.819550,157.451477 154.972504,155.437271 
	C155.866806,154.760666 156.635574,154.400238 157.718002,154.136551 
z"/>
<path fill="rgb(124, 58, 237)" opacity="1.000000" stroke="none" 
	d="
M280.407074,251.803406 
	C279.831421,251.082748 279.626007,250.426666 279.420593,249.770569 
	C281.152832,249.926086 282.885071,250.081589 284.617279,250.237091 
	C284.204773,250.672089 283.792236,251.107086 283.203186,251.727783 
	C282.276855,251.898331 281.527100,251.883163 280.407074,251.803406 
z"/>
<path fill="rgb(124, 58, 237)" opacity="1.000000" stroke="none" 
	d="
M176.018127,135.002197 
	C175.233475,136.198853 174.448822,137.395493 173.200684,138.961945 
	C172.552536,139.643112 172.367889,139.954498 172.183258,140.265869 
	C172.183243,140.265869 172.243744,140.200714 171.963104,140.190247 
	C171.494781,140.160294 171.307129,140.140823 171.119461,140.121353 
	C170.979126,139.949463 170.838776,139.777557 170.500214,139.336639 
	C171.303970,137.816086 172.305954,136.564575 173.924805,135.143646 
	C175.033829,134.983566 175.525986,134.992874 176.018127,135.002197 
z"/>
<path fill="rgb(124, 58, 237)" opacity="1.000000" stroke="none" 
	d="
M207.988190,143.007980 
	C208.289429,143.482925 208.590652,143.957886 208.943405,144.715546 
	C208.042786,144.553177 207.090637,144.108093 206.080750,143.390717 
	C206.023026,143.118408 206.406189,142.951370 206.904907,142.969238 
	C207.598480,142.994064 207.793335,143.001022 207.988190,143.007980 
z"/>
<path fill="rgb(124, 58, 237)" opacity="1.000000" stroke="none" 
	d="
M176.278595,134.849823 
	C175.525986,134.992874 175.033829,134.983566 174.172455,134.956757 
	C174.286346,134.378815 174.769470,133.818375 175.252609,133.257950 
	C175.681427,133.737778 176.110245,134.217606 176.278595,134.849823 
z"/>
<path fill="rgb(124, 58, 237)" opacity="1.000000" stroke="none" 
	d="
M193.155350,162.670258 
	C193.077942,162.266235 193.336914,162.094666 193.928345,162.140533 
	C193.905884,162.390884 193.649521,162.572464 193.155350,162.670258 
z"/>
<path fill="rgb(124, 58, 237)" opacity="1.000000" stroke="none" 
	d="
M172.437668,140.135284 
	C172.367889,139.954498 172.552536,139.643112 172.947784,139.157654 
	C173.002960,139.323944 172.847519,139.664337 172.437668,140.135284 
z"/>
<path fill="rgb(124, 58, 237)" opacity="1.000000" stroke="none" 
	d="
M171.132843,140.441910 
	C171.307129,140.140823 171.494781,140.160294 171.960541,140.234619 
	C172.047394,140.571198 171.856171,140.852921 171.442444,141.267258 
	C171.195389,141.187408 171.170822,140.974945 171.132843,140.441910 
z"/>
<path fill="rgb(124, 58, 237)" opacity="1.000000" stroke="none" 
	d="
M207.985474,142.724854 
	C207.793335,143.001022 207.598480,142.994064 207.113129,142.951385 
	C207.020081,142.606445 207.217529,142.297211 207.693634,141.931732 
	C207.975784,142.064255 207.979263,142.252991 207.985474,142.724854 
z"/>
<path fill="rgb(124, 58, 237)" opacity="1.000000" stroke="none" 
	d="
M157.352417,157.976013 
	C157.232574,157.784882 157.308472,157.441544 157.657257,157.024246 
	C157.966949,157.313232 157.839615,157.604401 157.352417,157.976013 
z"/>
<path fill="rgb(124, 58, 237)" opacity="1.000000" stroke="none" 
	d="
M155.576874,161.208832 
	C155.446945,160.958954 155.592850,160.667984 155.973328,160.284790 
	C156.089508,160.517609 155.971115,160.842682 155.576874,161.208832 
z"/>
<path fill="rgb(124, 58, 237)" opacity="1.000000" stroke="none" 
	d="
M112.761719,207.038681 
	C112.961281,207.376816 112.915314,207.761505 112.796989,208.426056 
	C112.655151,208.165695 112.585670,207.625458 112.761719,207.038681 
z"/>
</svg>